<mxfile host="Electron" modified="2022-10-10T15:20:52.661Z" agent="5.0 (Windows NT 10.0; Win64; x64) AppleWebKit/537.36 (KHTML, like Gecko) draw.io/20.3.0 Chrome/104.0.5112.114 Electron/20.1.3 Safari/537.36" etag="OiE9u6tr-K4jQ18GA_o4" compressed="false" version="20.3.0" type="device">
  <diagram id="UpFueUuBWqiXrLH55dX2" name="第 1 页">
    <mxGraphModel dx="638" dy="1041" grid="1" gridSize="10" guides="1" tooltips="1" connect="1" arrows="1" fold="1" page="0" pageScale="1" pageWidth="1920" pageHeight="1200" background="none" math="0" shadow="0">
      <root>
        <mxCell id="0" />
        <mxCell id="1" parent="0" />
        <mxCell id="Faw4RQUeOR1Ntfg5_-7v-2" value="" style="rounded=1;whiteSpace=wrap;html=1;glass=0;shadow=0;sketch=1;fillColor=none;dashed=1;" parent="1" vertex="1">
          <mxGeometry x="610" y="480" width="570" height="270" as="geometry" />
        </mxCell>
        <mxCell id="Faw4RQUeOR1Ntfg5_-7v-4" value="堆 &lt;br&gt;heap" style="rounded=1;whiteSpace=wrap;html=1;sketch=1;hachureGap=4;fontFamily=微软雅黑;fontSize=20;fillColor=#fad9d5;strokeColor=#ae4132;" parent="1" vertex="1">
          <mxGeometry x="630" y="540" width="150" height="70" as="geometry" />
        </mxCell>
        <mxCell id="Faw4RQUeOR1Ntfg5_-7v-5" value="方法区 &lt;br&gt;Method area" style="rounded=1;whiteSpace=wrap;html=1;sketch=1;hachureGap=4;fontFamily=Architects Daughter;fontSource=https%3A%2F%2Ffonts.googleapis.com%2Fcss%3Ffamily%3DArchitects%2BDaughter;fontSize=20;fillColor=#fad9d5;strokeColor=#ae4132;" parent="1" vertex="1">
          <mxGeometry x="630" y="650" width="150" height="70" as="geometry" />
        </mxCell>
        <mxCell id="Faw4RQUeOR1Ntfg5_-7v-6" value="Java栈&lt;br&gt;Java Stack" style="rounded=1;whiteSpace=wrap;html=1;sketch=1;hachureGap=4;fontFamily=Architects Daughter;fontSource=https%3A%2F%2Ffonts.googleapis.com%2Fcss%3Ffamily%3DArchitects%2BDaughter;fontSize=20;fillColor=#b1ddf0;strokeColor=#10739e;" parent="1" vertex="1">
          <mxGeometry x="820" y="545" width="120" height="65" as="geometry" />
        </mxCell>
        <mxCell id="Faw4RQUeOR1Ntfg5_-7v-7" value="本地方法栈&lt;br&gt;Native Method Stack" style="rounded=1;whiteSpace=wrap;html=1;sketch=1;hachureGap=4;fontFamily=Architects Daughter;fontSource=https%3A%2F%2Ffonts.googleapis.com%2Fcss%3Ffamily%3DArchitects%2BDaughter;fontSize=20;fillColor=#b1ddf0;strokeColor=#10739e;" parent="1" vertex="1">
          <mxGeometry x="960" y="545" width="200" height="60" as="geometry" />
        </mxCell>
        <mxCell id="Faw4RQUeOR1Ntfg5_-7v-8" value="程序计数器&lt;br&gt;Program Counter Register" style="rounded=1;whiteSpace=wrap;html=1;sketch=1;hachureGap=4;fontFamily=Architects Daughter;fontSource=https%3A%2F%2Ffonts.googleapis.com%2Fcss%3Ffamily%3DArchitects%2BDaughter;fontSize=20;fillColor=#b1ddf0;strokeColor=#10739e;" parent="1" vertex="1">
          <mxGeometry x="820" y="650" width="340" height="70" as="geometry" />
        </mxCell>
        <mxCell id="Faw4RQUeOR1Ntfg5_-7v-9" value="运行时数据区" style="text;html=1;strokeColor=none;fillColor=none;align=center;verticalAlign=middle;whiteSpace=wrap;rounded=0;sketch=1;hachureGap=4;fontFamily=Architects Daughter;fontSource=https%3A%2F%2Ffonts.googleapis.com%2Fcss%3Ffamily%3DArchitects%2BDaughter;fontSize=20;" parent="1" vertex="1">
          <mxGeometry x="780" y="490" width="190" height="30" as="geometry" />
        </mxCell>
        <mxCell id="Faw4RQUeOR1Ntfg5_-7v-11" value="Class Files" style="shape=note;size=29;whiteSpace=wrap;html=1;rounded=1;sketch=1;hachureGap=4;fontFamily=Architects Daughter;fontSource=https%3A%2F%2Ffonts.googleapis.com%2Fcss%3Ffamily%3DArchitects%2BDaughter;fontSize=20;" parent="1" vertex="1">
          <mxGeometry x="810" y="335" width="100" height="100" as="geometry" />
        </mxCell>
        <mxCell id="Faw4RQUeOR1Ntfg5_-7v-56" style="edgeStyle=orthogonalEdgeStyle;sketch=1;hachureGap=4;orthogonalLoop=1;jettySize=auto;html=1;exitX=0.5;exitY=0;exitDx=0;exitDy=0;entryX=0.036;entryY=0.994;entryDx=0;entryDy=0;shadow=0;fontFamily=Architects Daughter;fontSource=https%3A%2F%2Ffonts.googleapis.com%2Fcss%3Ffamily%3DArchitects%2BDaughter;fontSize=18;endArrow=open;startSize=14;endSize=14;sourcePerimeterSpacing=8;targetPerimeterSpacing=8;curved=1;entryPerimeter=0;" parent="1" source="Faw4RQUeOR1Ntfg5_-7v-13" target="Faw4RQUeOR1Ntfg5_-7v-55" edge="1">
          <mxGeometry relative="1" as="geometry" />
        </mxCell>
        <mxCell id="Faw4RQUeOR1Ntfg5_-7v-13" value="类装载&lt;br&gt;Class Loader" style="rounded=1;whiteSpace=wrap;html=1;sketch=1;hachureGap=4;fontFamily=Architects Daughter;fontSource=https%3A%2F%2Ffonts.googleapis.com%2Fcss%3Ffamily%3DArchitects%2BDaughter;fontSize=20;fillColor=#ffcccc;strokeColor=#36393d;" parent="1" vertex="1">
          <mxGeometry x="990" y="350" width="160" height="70" as="geometry" />
        </mxCell>
        <mxCell id="Faw4RQUeOR1Ntfg5_-7v-17" value="执行引擎&lt;br&gt;Execution Engine" style="rounded=1;whiteSpace=wrap;html=1;sketch=1;hachureGap=4;fontFamily=Architects Daughter;fontSource=https%3A%2F%2Ffonts.googleapis.com%2Fcss%3Ffamily%3DArchitects%2BDaughter;fontSize=20;fillColor=#ffcccc;strokeColor=#36393d;" parent="1" vertex="1">
          <mxGeometry x="620" y="820" width="160" height="70" as="geometry" />
        </mxCell>
        <mxCell id="Faw4RQUeOR1Ntfg5_-7v-27" value="" style="endArrow=classic;html=1;rounded=1;shadow=0;sketch=1;hachureGap=4;fontFamily=Architects Daughter;fontSource=https%3A%2F%2Ffonts.googleapis.com%2Fcss%3Ffamily%3DArchitects%2BDaughter;fontSize=16;startSize=14;endSize=14;sourcePerimeterSpacing=8;targetPerimeterSpacing=8;curved=1;" parent="1" edge="1">
          <mxGeometry width="50" height="50" relative="1" as="geometry">
            <mxPoint x="920" y="390" as="sourcePoint" />
            <mxPoint x="970" y="390" as="targetPoint" />
          </mxGeometry>
        </mxCell>
        <mxCell id="Faw4RQUeOR1Ntfg5_-7v-28" value="" style="endArrow=classic;startArrow=classic;html=1;rounded=1;shadow=0;sketch=1;hachureGap=4;fontFamily=Architects Daughter;fontSource=https%3A%2F%2Ffonts.googleapis.com%2Fcss%3Ffamily%3DArchitects%2BDaughter;fontSize=16;startSize=14;endSize=14;sourcePerimeterSpacing=8;targetPerimeterSpacing=8;curved=1;" parent="1" edge="1">
          <mxGeometry width="50" height="50" relative="1" as="geometry">
            <mxPoint x="690" y="810" as="sourcePoint" />
            <mxPoint x="690" y="760" as="targetPoint" />
          </mxGeometry>
        </mxCell>
        <mxCell id="Faw4RQUeOR1Ntfg5_-7v-29" value="" style="endArrow=classic;startArrow=classic;html=1;rounded=1;shadow=0;sketch=1;hachureGap=4;fontFamily=Architects Daughter;fontSource=https%3A%2F%2Ffonts.googleapis.com%2Fcss%3Ffamily%3DArchitects%2BDaughter;fontSize=16;startSize=14;endSize=14;sourcePerimeterSpacing=8;targetPerimeterSpacing=8;curved=1;" parent="1" edge="1">
          <mxGeometry width="50" height="50" relative="1" as="geometry">
            <mxPoint x="1088.82" y="480" as="sourcePoint" />
            <mxPoint x="1088.82" y="420" as="targetPoint" />
          </mxGeometry>
        </mxCell>
        <mxCell id="Faw4RQUeOR1Ntfg5_-7v-31" value="" style="endArrow=classic;startArrow=classic;html=1;rounded=1;shadow=0;sketch=1;hachureGap=4;fontFamily=Architects Daughter;fontSource=https%3A%2F%2Ffonts.googleapis.com%2Fcss%3Ffamily%3DArchitects%2BDaughter;fontSize=16;startSize=14;endSize=14;sourcePerimeterSpacing=8;targetPerimeterSpacing=8;curved=1;" parent="1" edge="1">
          <mxGeometry width="50" height="50" relative="1" as="geometry">
            <mxPoint x="800" y="860" as="sourcePoint" />
            <mxPoint x="890" y="860" as="targetPoint" />
          </mxGeometry>
        </mxCell>
        <mxCell id="Faw4RQUeOR1Ntfg5_-7v-32" value="本地方法接口&lt;br&gt;Native Interface" style="rounded=1;whiteSpace=wrap;html=1;sketch=1;hachureGap=4;fontFamily=Architects Daughter;fontSource=https%3A%2F%2Ffonts.googleapis.com%2Fcss%3Ffamily%3DArchitects%2BDaughter;fontSize=20;fillColor=none;" parent="1" vertex="1">
          <mxGeometry x="900" y="825" width="190" height="60" as="geometry" />
        </mxCell>
        <mxCell id="Faw4RQUeOR1Ntfg5_-7v-33" value="" style="endArrow=classic;startArrow=classic;html=1;rounded=1;shadow=0;sketch=1;hachureGap=4;fontFamily=Architects Daughter;fontSource=https%3A%2F%2Ffonts.googleapis.com%2Fcss%3Ffamily%3DArchitects%2BDaughter;fontSize=16;startSize=14;endSize=14;sourcePerimeterSpacing=8;targetPerimeterSpacing=8;curved=1;" parent="1" edge="1">
          <mxGeometry width="50" height="50" relative="1" as="geometry">
            <mxPoint x="989.47" y="810.0000000000002" as="sourcePoint" />
            <mxPoint x="989.47" y="760.0000000000002" as="targetPoint" />
          </mxGeometry>
        </mxCell>
        <mxCell id="Faw4RQUeOR1Ntfg5_-7v-34" value="本地方法库" style="text;html=1;strokeColor=none;fillColor=none;align=center;verticalAlign=middle;whiteSpace=wrap;rounded=0;sketch=1;hachureGap=4;fontFamily=Architects Daughter;fontSource=https%3A%2F%2Ffonts.googleapis.com%2Fcss%3Ffamily%3DArchitects%2BDaughter;fontSize=18;" parent="1" vertex="1">
          <mxGeometry x="1140" y="840" width="120" height="30" as="geometry" />
        </mxCell>
        <mxCell id="Faw4RQUeOR1Ntfg5_-7v-36" value="" style="endArrow=classic;html=1;rounded=1;shadow=0;sketch=1;hachureGap=4;fontFamily=Architects Daughter;fontSource=https%3A%2F%2Ffonts.googleapis.com%2Fcss%3Ffamily%3DArchitects%2BDaughter;fontSize=16;startSize=14;endSize=14;sourcePerimeterSpacing=8;targetPerimeterSpacing=8;curved=1;" parent="1" edge="1">
          <mxGeometry width="50" height="50" relative="1" as="geometry">
            <mxPoint x="1140" y="854.47" as="sourcePoint" />
            <mxPoint x="1100" y="854.47" as="targetPoint" />
          </mxGeometry>
        </mxCell>
        <mxCell id="Faw4RQUeOR1Ntfg5_-7v-39" value="" style="endArrow=none;dashed=1;html=1;dashPattern=1 3;strokeWidth=2;rounded=0;shadow=0;sketch=1;hachureGap=4;fontFamily=Architects Daughter;fontSource=https%3A%2F%2Ffonts.googleapis.com%2Fcss%3Ffamily%3DArchitects%2BDaughter;fontSize=16;startSize=14;endSize=14;sourcePerimeterSpacing=8;targetPerimeterSpacing=8;" parent="1" edge="1">
          <mxGeometry width="50" height="50" relative="1" as="geometry">
            <mxPoint x="800" y="739" as="sourcePoint" />
            <mxPoint x="800" y="544" as="targetPoint" />
          </mxGeometry>
        </mxCell>
        <mxCell id="Faw4RQUeOR1Ntfg5_-7v-40" value="" style="endArrow=none;dashed=1;html=1;dashPattern=1 3;strokeWidth=2;rounded=0;shadow=0;sketch=1;hachureGap=4;fontFamily=Architects Daughter;fontSource=https%3A%2F%2Ffonts.googleapis.com%2Fcss%3Ffamily%3DArchitects%2BDaughter;fontSize=18;startSize=14;endSize=14;sourcePerimeterSpacing=8;targetPerimeterSpacing=8;" parent="1" edge="1">
          <mxGeometry width="50" height="50" relative="1" as="geometry">
            <mxPoint x="650" y="530" as="sourcePoint" />
            <mxPoint x="1160" y="530" as="targetPoint" />
          </mxGeometry>
        </mxCell>
        <mxCell id="Faw4RQUeOR1Ntfg5_-7v-44" value="Java File" style="shape=note;whiteSpace=wrap;html=1;backgroundOutline=1;darkOpacity=0.05;rounded=1;sketch=1;hachureGap=4;fontFamily=Architects Daughter;fontSource=https%3A%2F%2Ffonts.googleapis.com%2Fcss%3Ffamily%3DArchitects%2BDaughter;fontSize=18;" parent="1" vertex="1">
          <mxGeometry x="630" y="335" width="80" height="100" as="geometry" />
        </mxCell>
        <mxCell id="Faw4RQUeOR1Ntfg5_-7v-45" value="" style="endArrow=classic;html=1;rounded=1;shadow=0;sketch=1;hachureGap=4;fontFamily=Architects Daughter;fontSource=https%3A%2F%2Ffonts.googleapis.com%2Fcss%3Ffamily%3DArchitects%2BDaughter;fontSize=16;startSize=14;endSize=14;sourcePerimeterSpacing=8;targetPerimeterSpacing=8;curved=1;" parent="1" edge="1">
          <mxGeometry width="50" height="50" relative="1" as="geometry">
            <mxPoint x="730" y="390" as="sourcePoint" />
            <mxPoint x="800" y="390" as="targetPoint" />
          </mxGeometry>
        </mxCell>
        <mxCell id="Faw4RQUeOR1Ntfg5_-7v-53" value="编译" style="edgeLabel;html=1;align=center;verticalAlign=middle;resizable=0;points=[];fontSize=18;fontFamily=Architects Daughter;" parent="Faw4RQUeOR1Ntfg5_-7v-45" vertex="1" connectable="0">
          <mxGeometry x="-0.5328" relative="1" as="geometry">
            <mxPoint x="14" as="offset" />
          </mxGeometry>
        </mxCell>
        <mxCell id="Faw4RQUeOR1Ntfg5_-7v-55" value="" style="rounded=1;whiteSpace=wrap;html=1;sketch=1;hachureGap=4;fontFamily=Architects Daughter;fontSource=https%3A%2F%2Ffonts.googleapis.com%2Fcss%3Ffamily%3DArchitects%2BDaughter;fontSize=18;fillColor=none;" parent="1" vertex="1">
          <mxGeometry x="1160" y="-20" width="570" height="310" as="geometry" />
        </mxCell>
        <mxCell id="Faw4RQUeOR1Ntfg5_-7v-62" style="edgeStyle=orthogonalEdgeStyle;curved=1;sketch=1;hachureGap=4;orthogonalLoop=1;jettySize=auto;html=1;entryX=0;entryY=0.5;entryDx=0;entryDy=0;shadow=0;fontFamily=Architects Daughter;fontSource=https%3A%2F%2Ffonts.googleapis.com%2Fcss%3Ffamily%3DArchitects%2BDaughter;fontSize=18;endArrow=open;startSize=14;endSize=14;sourcePerimeterSpacing=8;targetPerimeterSpacing=8;" parent="1" source="Faw4RQUeOR1Ntfg5_-7v-59" target="Faw4RQUeOR1Ntfg5_-7v-60" edge="1">
          <mxGeometry relative="1" as="geometry" />
        </mxCell>
        <mxCell id="Faw4RQUeOR1Ntfg5_-7v-75" style="edgeStyle=orthogonalEdgeStyle;curved=1;sketch=1;hachureGap=4;orthogonalLoop=1;jettySize=auto;html=1;shadow=0;fontFamily=Architects Daughter;fontSource=https%3A%2F%2Ffonts.googleapis.com%2Fcss%3Ffamily%3DArchitects%2BDaughter;fontSize=16;endArrow=open;startSize=14;endSize=14;sourcePerimeterSpacing=8;targetPerimeterSpacing=8;dashed=1;" parent="1" source="Faw4RQUeOR1Ntfg5_-7v-59" target="Faw4RQUeOR1Ntfg5_-7v-74" edge="1">
          <mxGeometry relative="1" as="geometry" />
        </mxCell>
        <mxCell id="Faw4RQUeOR1Ntfg5_-7v-59" value="" style="rounded=1;whiteSpace=wrap;html=1;sketch=1;hachureGap=4;fontFamily=Architects Daughter;fontSource=https%3A%2F%2Ffonts.googleapis.com%2Fcss%3Ffamily%3DArchitects%2BDaughter;fontSize=18;fillColor=#ffcc99;strokeColor=#36393d;" parent="1" vertex="1">
          <mxGeometry x="1190" y="20" width="120" height="230" as="geometry" />
        </mxCell>
        <mxCell id="Faw4RQUeOR1Ntfg5_-7v-63" style="edgeStyle=orthogonalEdgeStyle;curved=1;sketch=1;hachureGap=4;orthogonalLoop=1;jettySize=auto;html=1;entryX=0;entryY=0.5;entryDx=0;entryDy=0;shadow=0;fontFamily=Architects Daughter;fontSource=https%3A%2F%2Ffonts.googleapis.com%2Fcss%3Ffamily%3DArchitects%2BDaughter;fontSize=18;endArrow=open;startSize=14;endSize=14;sourcePerimeterSpacing=8;targetPerimeterSpacing=8;" parent="1" source="Faw4RQUeOR1Ntfg5_-7v-60" target="Faw4RQUeOR1Ntfg5_-7v-61" edge="1">
          <mxGeometry relative="1" as="geometry" />
        </mxCell>
        <mxCell id="Faw4RQUeOR1Ntfg5_-7v-60" value="" style="rounded=1;whiteSpace=wrap;html=1;sketch=1;hachureGap=4;fontFamily=Architects Daughter;fontSource=https%3A%2F%2Ffonts.googleapis.com%2Fcss%3Ffamily%3DArchitects%2BDaughter;fontSize=18;fillColor=#ffff88;strokeColor=#36393d;" parent="1" vertex="1">
          <mxGeometry x="1382.5" y="20" width="125" height="230" as="geometry" />
        </mxCell>
        <mxCell id="Faw4RQUeOR1Ntfg5_-7v-61" value="初始化" style="rounded=1;whiteSpace=wrap;html=1;sketch=1;hachureGap=4;fontFamily=Architects Daughter;fontSource=https%3A%2F%2Ffonts.googleapis.com%2Fcss%3Ffamily%3DArchitects%2BDaughter;fontSize=18;fillColor=#cdeb8b;strokeColor=#36393d;" parent="1" vertex="1">
          <mxGeometry x="1570" y="20" width="125" height="230" as="geometry" />
        </mxCell>
        <mxCell id="Faw4RQUeOR1Ntfg5_-7v-64" value="加载" style="text;html=1;strokeColor=none;fillColor=none;align=center;verticalAlign=middle;whiteSpace=wrap;rounded=0;sketch=1;hachureGap=4;fontFamily=Architects Daughter;fontSource=https%3A%2F%2Ffonts.googleapis.com%2Fcss%3Ffamily%3DArchitects%2BDaughter;fontSize=18;" parent="1" vertex="1">
          <mxGeometry x="1220" y="30" width="60" height="30" as="geometry" />
        </mxCell>
        <mxCell id="Faw4RQUeOR1Ntfg5_-7v-65" value="链接" style="text;html=1;strokeColor=none;fillColor=none;align=center;verticalAlign=middle;whiteSpace=wrap;rounded=0;sketch=1;hachureGap=4;fontFamily=Architects Daughter;fontSource=https%3A%2F%2Ffonts.googleapis.com%2Fcss%3Ffamily%3DArchitects%2BDaughter;fontSize=18;" parent="1" vertex="1">
          <mxGeometry x="1415" y="30" width="60" height="30" as="geometry" />
        </mxCell>
        <mxCell id="Faw4RQUeOR1Ntfg5_-7v-66" value="&lt;font style=&quot;font-size: 12px;&quot;&gt;引导类加载器&lt;/font&gt;" style="rounded=1;whiteSpace=wrap;html=1;sketch=1;hachureGap=4;fontFamily=Architects Daughter;fontSource=https%3A%2F%2Ffonts.googleapis.com%2Fcss%3Ffamily%3DArchitects%2BDaughter;fontSize=18;" parent="1" vertex="1">
          <mxGeometry x="1210" y="80" width="80" height="40" as="geometry" />
        </mxCell>
        <mxCell id="Faw4RQUeOR1Ntfg5_-7v-67" value="&lt;font style=&quot;font-size: 12px;&quot;&gt;扩展类加载器&lt;/font&gt;" style="rounded=1;whiteSpace=wrap;html=1;sketch=1;hachureGap=4;fontFamily=Architects Daughter;fontSource=https%3A%2F%2Ffonts.googleapis.com%2Fcss%3Ffamily%3DArchitects%2BDaughter;fontSize=18;" parent="1" vertex="1">
          <mxGeometry x="1210" y="137" width="80" height="40" as="geometry" />
        </mxCell>
        <mxCell id="Faw4RQUeOR1Ntfg5_-7v-68" value="&lt;font size=&quot;1&quot;&gt;应用类加载器&lt;/font&gt;" style="rounded=1;whiteSpace=wrap;html=1;sketch=1;hachureGap=4;fontFamily=Architects Daughter;fontSource=https%3A%2F%2Ffonts.googleapis.com%2Fcss%3Ffamily%3DArchitects%2BDaughter;fontSize=18;" parent="1" vertex="1">
          <mxGeometry x="1210" y="190" width="80" height="40" as="geometry" />
        </mxCell>
        <mxCell id="Faw4RQUeOR1Ntfg5_-7v-69" value="验证" style="rounded=1;whiteSpace=wrap;html=1;sketch=1;hachureGap=4;fontFamily=Architects Daughter;fontSource=https%3A%2F%2Ffonts.googleapis.com%2Fcss%3Ffamily%3DArchitects%2BDaughter;fontSize=12;" parent="1" vertex="1">
          <mxGeometry x="1406" y="80" width="75" height="40" as="geometry" />
        </mxCell>
        <mxCell id="Faw4RQUeOR1Ntfg5_-7v-70" value="准备" style="rounded=1;whiteSpace=wrap;html=1;sketch=1;hachureGap=4;fontFamily=Architects Daughter;fontSource=https%3A%2F%2Ffonts.googleapis.com%2Fcss%3Ffamily%3DArchitects%2BDaughter;fontSize=12;" parent="1" vertex="1">
          <mxGeometry x="1407" y="137" width="75" height="40" as="geometry" />
        </mxCell>
        <mxCell id="Faw4RQUeOR1Ntfg5_-7v-71" value="解析" style="rounded=1;whiteSpace=wrap;html=1;sketch=1;hachureGap=4;fontFamily=Architects Daughter;fontSource=https%3A%2F%2Ffonts.googleapis.com%2Fcss%3Ffamily%3DArchitects%2BDaughter;fontSize=12;" parent="1" vertex="1">
          <mxGeometry x="1407.5" y="190" width="75" height="40" as="geometry" />
        </mxCell>
        <mxCell id="Faw4RQUeOR1Ntfg5_-7v-74" value="通过一个类的全限定名获取此类的二进制字节流（可从多个地方获取），所代表的信息转为方法区运行时数据结构，同时会在方法区生成一个代表这个类的Class对象，作为对应数据入口" style="shape=note;size=20;whiteSpace=wrap;html=1;rounded=0;shadow=0;glass=0;labelBackgroundColor=none;labelBorderColor=none;sketch=1;hachureGap=4;fontFamily=Architects Daughter;fontSource=https%3A%2F%2Ffonts.googleapis.com%2Fcss%3Ffamily%3DArchitects%2BDaughter;fontSize=16;fillColor=#e3c800;strokeColor=#B09500;fontColor=#000000;" parent="1" vertex="1">
          <mxGeometry x="930" y="-20" width="160" height="225" as="geometry" />
        </mxCell>
        <mxCell id="5SP2Hkb6CLst0mhZNxZb-2" style="edgeStyle=orthogonalEdgeStyle;orthogonalLoop=1;jettySize=auto;html=1;exitX=0.5;exitY=1;exitDx=0;exitDy=0;exitPerimeter=0;entryX=0.5;entryY=0;entryDx=0;entryDy=0;fontFamily=Comic Sans MS;sketch=1;curved=1;dashed=1;" parent="1" source="5SP2Hkb6CLst0mhZNxZb-1" target="Faw4RQUeOR1Ntfg5_-7v-60" edge="1">
          <mxGeometry relative="1" as="geometry" />
        </mxCell>
        <mxCell id="5SP2Hkb6CLst0mhZNxZb-1" value="&lt;font face=&quot;Comic Sans MS&quot;&gt;&lt;b&gt;验证&lt;/b&gt;阶段确保Class文件符合规范，会进行文件格式，元数据，字节码，符号引用验证。&lt;br&gt;&lt;b&gt;准备&lt;/b&gt;阶段为类变量分配内存设置初始值，final修饰的static在编译阶段就分配了，在此处会进行赋值&lt;br&gt;&lt;b&gt;解析&lt;/b&gt;会将常量池中的符号引用转为直接引用（类似import包操作，不是以符号代表，而是指向目标的指针或句柄）&lt;br&gt;&lt;br&gt;&lt;/font&gt;" style="shape=note;size=20;whiteSpace=wrap;html=1;fillColor=#e3c800;strokeColor=#B09500;sketch=1;fontColor=#000000;" parent="1" vertex="1">
          <mxGeometry x="1323.5" y="-260" width="184" height="190" as="geometry" />
        </mxCell>
        <mxCell id="kVb7bWOc-YhVNDlkIjAP-2" style="edgeStyle=orthogonalEdgeStyle;orthogonalLoop=1;jettySize=auto;html=1;exitX=0.5;exitY=1;exitDx=0;exitDy=0;exitPerimeter=0;curved=1;dashed=1;" edge="1" parent="1" source="kVb7bWOc-YhVNDlkIjAP-1" target="Faw4RQUeOR1Ntfg5_-7v-61">
          <mxGeometry relative="1" as="geometry" />
        </mxCell>
        <mxCell id="kVb7bWOc-YhVNDlkIjAP-1" value="&lt;b&gt;初始化&lt;/b&gt;用于执行类&amp;lt;clinit()&amp;gt;方法，同时会收集静态变量和static代码块。按照定义的顺序执行如果没有类变量就没有该方法，但是会有&amp;lt;init()&amp;gt;方法" style="shape=note;size=20;whiteSpace=wrap;html=1;fillColor=#e3c800;strokeColor=#B09500;sketch=1;fontColor=#000000;" vertex="1" parent="1">
          <mxGeometry x="1610" y="-230" width="230" height="130" as="geometry" />
        </mxCell>
      </root>
    </mxGraphModel>
  </diagram>
</mxfile>
